<svg xmlns="http://www.w3.org/2000/svg" width="32" height="32" viewBox="0 0 32 32">
    <defs>
        <style>
            .cls-3{fill:#004186}
        </style>
    </defs>
    <g id="ic-bank-citi" transform="translate(-4819 1310)">
        <path id="사각형_3196" fill="rgba(255,255,255,0)" d="M0 0H32V32H0z" transform="translate(4819 -1310)"/>
        <g id="은ᄒ_ᆼ-13-13" transform="translate(4823 -1302)">
            <g id="그룹_1713">
                <path id="패스_3017" fill="#e50012" fill-rule="evenodd" d="M25.359 4.056a9.528 9.528 0 0 0-15.6 0l-.092.131h2.259l.024-.027a7.7 7.7 0 0 1 11.217 0l.026.027h2.257l-.091-.131z" transform="translate(-1.45)"/>
                <g id="그룹_1712" transform="translate(0 2.779)">
                    <g id="그룹_1711">
                        <g id="그룹_1710">
                            <g id="그룹_1709">
                                <g id="그룹_1708">
                                    <g id="그룹_1707">
                                        <g id="그룹_1706">
                                            <g id="그룹_1705">
                                                <g id="그룹_1704">
                                                    <path id="패스_3018" d="M7.323 13.492l-.043.043a3.266 3.266 0 0 1-2.323 1.08 2.932 2.932 0 0 1-2.979-3.081 2.933 2.933 0 0 1 2.979-3.081 3.262 3.262 0 0 1 2.324 1.084l.043.043 1.108-1.342L8.4 8.2a4.233 4.233 0 0 0-3.39-1.62A5.148 5.148 0 0 0 1.5 7.869 4.817 4.817 0 0 0 0 11.534 4.822 4.822 0 0 0 1.5 15.2a5.135 5.135 0 0 0 3.515 1.29A4.238 4.238 0 0 0 8.4 14.87l.03-.034z" class="cls-3" transform="translate(0 -3.766)"/>
                                                    <path id="사각형_3198" d="M0 0H1.96V9.572H0z" class="cls-3" transform="translate(9.555 2.97)"/>
                                                    <path id="패스_3019" d="M21.535 13.73a2.84 2.84 0 0 1-1.447.479c-.633 0-.92-.334-.92-1.079V8.05h2v-1.8h-2V3.269L17.246 4.3v1.948h-1.658v1.8h1.658v5.4a2.258 2.258 0 0 0 2.174 2.5 3.073 3.073 0 0 0 1.74-.439l.019-.014.472-1.845z" class="cls-3" transform="translate(-2.338 -3.269)"/>
                                                    <path id="사각형_3199" d="M0 0H1.962V9.572H0z" class="cls-3" transform="translate(20.822 2.97)"/>
                                                </g>
                                            </g>
                                        </g>
                                    </g>
                                </g>
                            </g>
                        </g>
                    </g>
                </g>
            </g>
        </g>
    </g>
</svg>
