<svg xmlns="http://www.w3.org/2000/svg" width="32" height="32" viewBox="0 0 32 32">
    <defs>
        <style>
            .cls-2{fill:#d61f26}
        </style>
    </defs>
    <g id="ic-bank-bnk" transform="translate(-4703 1392)">
        <path id="사각형_3188" fill="rgba(255,255,255,0)" d="M0 0H32V32H0z" transform="translate(4703 -1392)"/>
        <g id="은ᄒ_ᆼ-07" transform="translate(4703 -1380.613)">
            <path id="패스_3007" d="M41.021 1.646h.824a.093.093 0 0 0 .1-.091V.093a.094.094 0 0 0-.1-.093h-1.159c-1.339 0-2.049.4-2.454 1.26l-2.518 5.806a.769.769 0 0 1-.807.511V.093a.1.1 0 0 0-.1-.093h-1.85a.1.1 0 0 0-.1.093v8.969a.168.168 0 0 0 .173.163h2.075c1.339 0 1.951-.4 2.356-1.259l2.489-5.735a1.012 1.012 0 0 1 1.071-.585" class="cls-2" transform="translate(-10.953)"/>
            <path id="패스_3008" d="M7.45 4.612a2.065 2.065 0 0 0 1.358-2.023C8.808.977 7.339 0 5.568 0H.1a.1.1 0 0 0-.1.092v1.464a.094.094 0 0 0 .1.091h5.089c.822 0 1.377.473 1.377 1.054s-.555 1.056-1.377 1.056H2.164V2.669a.1.1 0 0 0-.1-.091H.1a.094.094 0 0 0-.1.091v6.462a.1.1 0 0 0 .1.093h5.389c2.015 0 3.459-.885 3.459-2.689a2.005 2.005 0 0 0-1.5-1.923M5.293 7.617H2.164V5.454h3.129c.843 0 1.413.485 1.413 1.081s-.569 1.082-1.413 1.082" class="cls-2"/>
            <path id="패스_3009" d="M45.944 11.765l-3.172-3.819a.015.015 0 0 0-.029 0l-.855 1.965a.036.036 0 0 0 0 .037L43.28 11.7a.433.433 0 0 0 .375.169h2.235a.062.062 0 0 0 .053-.1" class="cls-2" transform="translate(-13.962 -2.646)"/>
            <path id="패스_3010" d="M17.659 3.866h-1.854a.1.1 0 0 0-.1.092v6.462a.1.1 0 0 0 .1.093h1.853a.1.1 0 0 0 .1-.093V3.958a.1.1 0 0 0-.1-.092" class="cls-2" transform="translate(-5.236 -1.289)"/>
            <path id="패스_3011" d="M25.28 0h-1.852a.1.1 0 0 0-.1.092v7.485a.766.766 0 0 1-.806-.511L20.005 1.26C19.6.4 18.89 0 17.551 0h-1.745a.1.1 0 0 0-.1.092v1.464a.094.094 0 0 0 .1.091h1.411a1.013 1.013 0 0 1 1.071.586l2.485 5.734c.405.855 1.017 1.259 2.357 1.259h2.076a.166.166 0 0 0 .171-.163V.092A.1.1 0 0 0 25.28 0" class="cls-2" transform="translate(-5.236)"/>
        </g>
    </g>
</svg>
