<svg xmlns="http://www.w3.org/2000/svg" width="32" height="32" viewBox="0 0 32 32">
    <defs>
        <style>
            .cls-2{fill:#008375}
        </style>
    </defs>
    <g id="ic-bank-hana" transform="translate(-4821 1432)">
        <path id="사각형_3182" fill="rgba(255,255,255,0)" d="M0 0H32V32H0z" transform="translate(4821 -1432)"/>
        <g id="은ᄒ_ᆼ-04" transform="translate(4824 -1427.639)">
            <path id="패스_2475" d="M21.227 19.374a4.361 4.361 0 0 0-.3-1.034 5.077 5.077 0 0 0-2.046-2.368 4.6 4.6 0 0 0-4.74.03 4.153 4.153 0 0 0-1.561 1.671 4.82 4.82 0 0 0-.3.733 5.137 5.137 0 0 0 .324 4 2.018 2.018 0 0 0 .957.835 1.388 1.388 0 0 0 1.24-.1 1.318 1.318 0 0 0 .463-1.389 3.65 3.65 0 0 1 .046-1.934 1.507 1.507 0 0 1 .343-.551 1.267 1.267 0 0 1 .328-.224 1.377 1.377 0 0 1 .818-.133 1.571 1.571 0 0 1 1.1.9 3.637 3.637 0 0 1 .3 1.433 21.6 21.6 0 0 1-.954 6.412c-.056.213-.114.423-.174.633-.049.163-.13.37-.027.528a.407.407 0 0 0 .19.146.719.719 0 0 0 .789-.281 11.439 11.439 0 0 0 2.608-4.564 14.448 14.448 0 0 0 .5-1.91 8.391 8.391 0 0 0 .1-2.835" class="cls-2" transform="translate(-4.209 -5.365)"/>
            <path id="패스_2476" d="M26 6.052a.544.544 0 0 0-.59-.522 2.827 2.827 0 0 0-.882.28 35.693 35.693 0 0 1-17.56 1.657c-1-.144-2-.343-3-.5-.625-.1-1.246-.239-1.877-.287a2.266 2.266 0 0 0-1.643.313A1.739 1.739 0 0 0 .237 9.05a4.644 4.644 0 0 0 1.786 1.728 4.331 4.331 0 0 0 2.342.8q3.334-.213 6.65-.644c3.768-.489 7.719-.952 11.257-2.413a14.153 14.153 0 0 0 3.29-1.845c.181-.137.439-.362.439-.623" class="cls-2" transform="translate(0 -1.935)"/>
            <path id="패스_2477" fill="#d50037" d="M15.646 2.226a2.172 2.172 0 0 0 4.343 0 1.22 1.22 0 0 0-.118-.519c-.186-.395-.4-.587-.372-1.059.026-.64-.791-.648-1.232-.648a3.191 3.191 0 0 0-1.422.285 2.19 2.19 0 0 0-.852.767 2.166 2.166 0 0 0-.346 1.124v.05" transform="translate(-5.476)"/>
        </g>
    </g>
</svg>
