<svg xmlns="http://www.w3.org/2000/svg" width="32" height="32" viewBox="0 0 32 32">
    <g>
        <path fill="rgba(255,255,255,0)" d="M0 0H32V32H0z" transform="translate(-4781 1432) translate(4781 -1432)"/>
        <g>
            <path fill="#fff" d="M6.325.314a2.919 2.919 0 0 0-1.473 1.7L.153 16.14a2.906 2.906 0 0 0 .163 2.246 2.932 2.932 0 0 0 1.7 1.471l15.416 5.174a2.935 2.935 0 0 0 3.718-1.861l4.7-14.124a2.943 2.943 0 0 0-1.862-3.721L8.573.153a2.916 2.916 0 0 0-2.248.161" transform="translate(-4781 1432) translate(4784 -1428.592) translate(0 0)"/>
            <path fill="#138fca" d="M14.7 14.743a8.079 8.079 0 0 1-3.095 2.157l-.694.27v-6.549l.686.267a8.07 8.07 0 0 1 3.1 2.146 7.085 7.085 0 0 0-3.428-10.318l-2.226-.741A1.9 1.9 0 0 0 6.636 3.2L1.922 17.333a1.931 1.931 0 0 0 1.237 2.428l10.7 3.572a7.078 7.078 0 0 0 .842-8.59m-6.189-4.512v7.339H7.45v-7.339z" transform="translate(-4781 1432) translate(4784 -1428.592) translate(-0.836 -0.86)"/>
            <path fill="#e43d30" d="M22.629 22.6a7.156 7.156 0 0 0-2.153-1.72v3.449a7.113 7.113 0 0 0 2.153-1.73" transform="translate(-4781 1432) translate(4784 -1428.592) translate(-9.385 -9.569)"/>
            <path fill="#015198" d="M35.345 8.8l-9.816-3.284a8.085 8.085 0 0 1 .711 10.04 8.082 8.082 0 0 1-.47 9.8l3.688 1.231a1.9 1.9 0 0 0 2.408-1.224l4.716-14.135A1.932 1.932 0 0 0 35.345 8.8m-2.6 10.417h-1.327l-2.729-3.67 2.772-3.668 1.338-.006-2.777 3.68z" transform="translate(-4781 1432) translate(4784 -1428.592) translate(-11.701 -2.528)"/>
        </g>
    </g>
</svg>
