<svg xmlns="http://www.w3.org/2000/svg" width="32" height="32" viewBox="0 0 32 32">
    <g>
        <path fill="rgba(255,255,255,0)" d="M0 0H32V32H0z" transform="translate(-4821 1392) translate(4821 -1392)"/>
        <path fill="#0061ad" d="M25.331 14.484a7.06 7.06 0 0 1-3.312 3.946A11.668 11.668 0 0 0 24.4 5.118c-.9-1.594.246-2.294.246-2.294-2.622.658-1.8 2.827-1.8 2.827a10.861 10.861 0 0 1 .6 7.261l-.863-.483.015-.021s2.046-8.065-6.3-10.89L16.287 0h-1.762v9.993l8.191 4.67c-.148.3-.307.587-.472.858l-8.228-4.765-8.262 4.764c-.162-.271-.321-.555-.473-.858l8.193-4.67V0h-1.762l-.006 1.519c-8.347 2.826-6.3 10.89-6.3 10.89l.015.021-.866.483a10.859 10.859 0 0 1 .606-7.261s.819-2.169-1.8-2.827c0 0 1.146.7.244 2.294a11.665 11.665 0 0 0 2.375 13.31 7.066 7.066 0 0 1-3.313-3.946A2.4 2.4 0 0 0 0 13.309l1.177 1.7A10.235 10.235 0 0 0 9.789 21.5v3.113h3.356v-4.585A9.325 9.325 0 0 1 6.863 17l.844-.491a10.227 10.227 0 0 0 6.271 2.605h.041a10.252 10.252 0 0 0 6.274-2.605l.841.491a9.327 9.327 0 0 1-6.282 3.023v4.585h3.359V21.5a10.233 10.233 0 0 0 8.61-6.494A2.687 2.687 0 0 1 28 13.309a2.406 2.406 0 0 0-2.669 1.174m-4.374-2.976l-.009.009-4.62-2.586L16.3 3.4h.027s5.57 1.512 4.629 8.107M11.672 3.4h.028l-.028 5.53-4.624 2.586v-.009C6.1 4.913 11.672 3.4 11.672 3.4m6.947 12.146l-.039-.023a7.3 7.3 0 0 1-4.58 1.73 7.3 7.3 0 0 1-4.58-1.73l-.041.023v-.008l4.633-2.7 4.607 2.7z" transform="translate(-4821 1392) translate(4823 -1388.307)"/>
    </g>
</svg>
