<svg xmlns="http://www.w3.org/2000/svg" width="32" height="32" viewBox="0 0 32 32">
    <defs>
        <radialGradient id="wixu55pcoa" cx=".607" cy=".379" r=".475" gradientTransform="translate(0.002)" gradientUnits="objectBoundingBox">
            <stop offset="0" stop-color="#fff"/>
            <stop offset="1" stop-color="#ce9b50"/>
        </radialGradient>
        <radialGradient id="z0fj7o9y4b" cx=".582" cy=".373" r="1.047" gradientTransform="translate(0.005)" gradientUnits="objectBoundingBox">
            <stop offset="0" stop-color="#00bff2"/>
            <stop offset=".219" stop-color="#0096d5"/>
            <stop offset=".278" stop-color="#0086c9"/>
            <stop offset=".368" stop-color="#0074bc"/>
            <stop offset=".463" stop-color="#0069b4"/>
            <stop offset=".573" stop-color="#0066b2"/>
        </radialGradient>
    </defs>
    <g>
        <path fill="rgba(255,255,255,0)" d="M0 0H32V32H0z" transform="translate(-4742 1432) translate(4742 -1432)"/>
        <g>
            <path fill="url(#wixu55pcoa)" d="M11.626.333a11.839 11.839 0 1 0 12.361 11.292A11.836 11.836 0 0 0 11.626.333z" transform="translate(-4742 1432) translate(4746.001 -1428) translate(-0.16 -0.16)"/>
            <path fill="url(#z0fj7o9y4b)" d="M11.458.013a12 12 0 1 0 12.528 11.445A12 12 0 0 0 11.458.013zm1.406 11.644c2.133 1.966 3.3 3.027 3.3 3.027 3.759 3.131 2.476 5.993 1.039 6.989a7.171 7.171 0 0 1-3.9 1.2.362.362 0 0 1-.418-.316c-.01-.271.386-.341.386-.341 3.549-.7 2.512-3.025 1.256-4.213-.526-.5-5.469-4.762-5.469-4.762-4.71-4.059-4.333-7.225-4.333-7.225.227-3.9 3.639-4.862 6.22-4.641.3.027.47.212.416.463-.057.275-.456.295-.456.295a4.209 4.209 0 0 0-2.115.508C6.71 4.04 7.325 6.42 10.1 9.07c.348.335.719.685 1.1 1.042 0 0 .555.488 1.664 1.544zm-1.612 10.072c.021.38-.9.547-1.957.443a7.543 7.543 0 0 1-4.289-1.74A8.316 8.316 0 0 1 2.572 16.5c-.39-1.355-.555-2.941.091-2.816.2.04.541.91.913 1.545a4.088 4.088 0 0 0 .993 1.238c.134.1.586-.907 1.243-1.479.384-.316.8-.423.869.519.083 1.157-.124 2.53.212 2.53.316 0 1.028-.238 2.591-.371.586-.05.92.061.361.852A5.916 5.916 0 0 1 8.3 20.107c1.331 1.244 2.924 1.093 2.952 1.622zM12.3 9.636a4.028 4.028 0 0 1-.043-1.507 10.2 10.2 0 0 1 .92-2.94c.543-1.364-.775-2.163-.558-2.664.3-.68 1.241.184 2.288.248.9.051 1.449.006 2.152.1A4.34 4.34 0 0 1 19.6 3.9c.455.534-.241 1.186-1.079.777-.612-.3-1.384-.115-.932.524a2.064 2.064 0 0 0 1.361.769 1.408 1.408 0 0 1 .526 2.624c-1.178.861-2.368.506-2.846-1.185-.241-.843-.836-1.273-1.446-1.033s-.248 1.349.214 2.377c.924 2.356-1.372 2.277-1.639 2.246A1.912 1.912 0 0 1 12.3 9.636z" transform="translate(-4742 1432) translate(4746.001 -1428) translate(0 0)"/>
        </g>
    </g>
</svg>
