<svg xmlns="http://www.w3.org/2000/svg" width="32" height="32" viewBox="0 0 32 32">
    <defs>
        <clipPath id="clip-path">
            <path id="패스_2467" d="M12.748 23.919A11.436 11.436 0 1 0 1.31 12.482a11.435 11.435 0 0 0 11.438 11.437z" transform="translate(-1.31 -1.046)"/>
        </clipPath>
        <style>
            .cls-2{fill:#fff}.cls-3{fill:#007bc6}
        </style>
    </defs>
    <g id="ic-bank-woori" transform="translate(-4703 1432)">
        <path id="사각형_3177" fill="rgba(255,255,255,0)" d="M0 0H32V32H0z" transform="translate(4703 -1432)"/>
        <g id="은ᄒ_ᆼ-01" transform="translate(4706.815 -1428)">
            <path id="패스_2402" d="M24.183 12a12 12 0 1 1-12-12 12 12 0 0 1 12 12z" class="cls-2"/>
            <g id="그룹_1659" transform="translate(0.748 0.523)">
                <path id="패스_2403" d="M12.748 23.919A11.436 11.436 0 1 0 1.31 12.482a11.435 11.435 0 0 0 11.438 11.437z" class="cls-3" transform="translate(-1.31 -1.046)"/>
            </g>
            <g id="그룹_1662" transform="translate(0.748 0.523)">
                <g id="그룹_1661" clip-path="url(#clip-path)">
                    <g id="그룹_1660" transform="translate(-0.655 3.84)">
                        <path id="패스_2404" d="M12.137 21.84c5.026 0 9.333 1.4 11.179 3.392a11.536 11.536 0 0 0 .959-4.629A12.01 12.01 0 0 0 12.137 8.725 12.012 12.012 0 0 0 0 20.605a11.547 11.547 0 0 0 .961 4.627C2.8 23.24 7.114 21.84 12.137 21.84z" class="cls-3" transform="translate(0 -8.725)"/>
                        <path id="패스_2405" fill="#007dc7" d="M12.166 21.955c5.013 0 9.31 1.388 11.15 3.364a11.4 11.4 0 0 0 .956-4.592 11.961 11.961 0 0 0-12.107-11.8A11.965 11.965 0 0 0 .06 20.73a11.411 11.411 0 0 0 .957 4.589c1.836-1.976 6.138-3.364 11.149-3.364z" transform="translate(-0.03 -8.827)"/>
                        <path id="패스_2406" fill="#007fc9" d="M12.195 22.068c5 0 9.286 1.377 11.121 3.336a11.257 11.257 0 0 0 .956-4.556A11.915 11.915 0 0 0 12.195 9.129 11.916 11.916 0 0 0 .12 20.851a11.269 11.269 0 0 0 .955 4.549c1.831-1.956 6.125-3.332 11.12-3.332z" transform="translate(-0.06 -8.927)"/>
                        <path id="패스_2407" fill="#0080ca" d="M12.222 22.182c4.987 0 9.263 1.366 11.092 3.309a11.12 11.12 0 0 0 .953-4.518A11.866 11.866 0 0 0 12.222 9.332 11.868 11.868 0 0 0 .179 20.975a11.129 11.129 0 0 0 .952 4.516c1.826-1.943 6.106-3.309 11.091-3.309z" transform="translate(-0.089 -9.028)"/>
                        <path id="패스_2408" fill="#0081cb" d="M12.251 22.3c4.975 0 9.239 1.353 11.065 3.282a10.974 10.974 0 0 0 .951-4.48A11.819 11.819 0 0 0 12.252 9.536 11.819 11.819 0 0 0 .24 21.1a10.979 10.979 0 0 0 .95 4.479C3.011 23.65 7.279 22.3 12.251 22.3z" transform="translate(-0.12 -9.131)"/>
                        <path id="패스_2409" fill="#0083cc" d="M12.279 22.412c4.961 0 9.214 1.342 11.035 3.254a10.8 10.8 0 0 0 .947-4.443A11.769 11.769 0 0 0 12.279 9.74 11.773 11.773 0 0 0 .3 21.225a10.825 10.825 0 0 0 .948 4.44c1.814-1.911 6.071-3.253 11.031-3.253z" transform="translate(-0.149 -9.233)"/>
                        <path id="패스_2410" fill="#0085ce" d="M12.306 22.524c4.949 0 9.192 1.332 11.007 3.228a10.691 10.691 0 0 0 .945-4.407c0-6.247-5.354-11.4-11.952-11.4S.356 15.1.356 21.347a10.7 10.7 0 0 0 .945 4.4c1.812-1.892 6.058-3.223 11.005-3.223z" transform="translate(-0.178 -9.333)"/>
                        <path id="패스_2411" fill="#0087cf" d="M12.334 22.638c4.936 0 9.167 1.321 10.978 3.2a10.547 10.547 0 0 0 .943-4.37c0-6.193-5.34-11.325-11.921-11.325S.414 15.277.414 21.471a10.556 10.556 0 0 0 .942 4.368c1.809-1.88 6.044-3.201 10.978-3.201z" transform="translate(-0.207 -9.435)"/>
                        <path id="패스_2412" fill="#0089d1" d="M12.364 22.754c4.922 0 9.143 1.308 10.949 3.173a10.387 10.387 0 0 0 .94-4.332c0-6.142-5.325-11.247-11.889-11.247S.475 15.454.475 21.6a10.4 10.4 0 0 0 .941 4.33c1.802-1.868 6.027-3.176 10.948-3.176z" transform="translate(-0.238 -9.536)"/>
                        <path id="패스_2413" fill="#008bd2" d="M12.391 22.867c4.908 0 9.12 1.3 10.92 3.146a10.255 10.255 0 0 0 .938-4.3c0-6.088-5.312-11.167-11.858-11.167S.534 15.63.534 21.719a10.271 10.271 0 0 0 .937 4.293c1.799-1.847 6.012-3.145 10.92-3.145z" transform="translate(-0.267 -9.638)"/>
                        <path id="패스_2414" fill="#008dd3" d="M12.42 22.981c4.9 0 9.1 1.285 10.892 3.118a10.106 10.106 0 0 0 .935-4.257c0-6.036-5.3-11.089-11.827-11.089S.594 15.806.594 21.842a10.127 10.127 0 0 0 .935 4.258c1.794-1.834 5.996-3.119 10.891-3.119z" transform="translate(-0.297 -9.739)"/>
                        <path id="패스_2415" fill="#008fd5" d="M12.448 23.095c4.883 0 9.072 1.274 10.863 3.09a9.95 9.95 0 0 0 .933-4.221c0-5.983-5.283-11.01-11.8-11.01S.653 15.981.653 21.965a9.986 9.986 0 0 0 .933 4.219c1.789-1.815 5.98-3.089 10.862-3.089z" transform="translate(-0.327 -9.84)"/>
                        <path id="패스_2416" fill="#0091d6" d="M12.476 23.211c4.87 0 9.047 1.263 10.834 3.063a9.819 9.819 0 0 0 .93-4.182c0-5.931-5.269-10.932-11.764-10.931S.713 16.162.713 22.093a9.839 9.839 0 0 0 .929 4.181c1.784-1.801 5.965-3.063 10.834-3.063z" transform="translate(-0.356 -9.943)"/>
                        <path id="패스_2417" fill="#0093d7" d="M12.5 23.323c4.857 0 9.024 1.251 10.805 3.035a9.691 9.691 0 0 0 .927-4.146c0-5.877-5.255-10.852-11.733-10.852S.772 16.336.772 22.215a9.7 9.7 0 0 0 .928 4.143c1.778-1.783 5.948-3.035 10.8-3.035z" transform="translate(-0.386 -10.043)"/>
                        <path id="패스_2418" fill="#0095d8" d="M12.531 23.439c4.845 0 9 1.24 10.777 3.009a9.564 9.564 0 0 0 .924-4.109c0-5.826-5.24-10.774-11.7-10.773S.829 16.514.829 22.339a9.582 9.582 0 0 0 .925 4.108c1.776-1.769 5.934-3.008 10.777-3.008z" transform="translate(-0.415 -10.145)"/>
                        <path id="패스_2419" fill="#0098da" d="M12.559 23.553c4.832 0 8.977 1.229 10.748 2.982a9.427 9.427 0 0 0 .923-4.071c0-5.772-5.227-10.7-11.671-10.695S.889 16.691.889 22.464a9.44 9.44 0 0 0 .923 4.071c1.77-1.753 5.917-2.982 10.747-2.982z" transform="translate(-0.444 -10.247)"/>
                        <path id="패스_2420" fill="#009adb" d="M12.588 23.666c4.819 0 8.954 1.217 10.721 2.954a9.286 9.286 0 0 0 .919-4.035c0-5.719-5.212-10.615-11.64-10.615S.949 16.867.949 22.588a9.292 9.292 0 0 0 .921 4.032c1.764-1.737 5.901-2.954 10.718-2.954z" transform="translate(-0.475 -10.348)"/>
                        <path id="패스_2421" fill="#009cdd" d="M12.616 23.779c4.805 0 8.93 1.207 10.691 2.926a9.138 9.138 0 0 0 .918-4c0-5.667-5.2-10.538-11.609-10.538S1.008 17.043 1.008 22.71a9.162 9.162 0 0 0 .918 3.99c1.76-1.714 5.886-2.921 10.69-2.921z" transform="translate(-0.504 -10.448)"/>
                        <path id="패스_2422" fill="#009fde" d="M12.645 23.9c4.792 0 8.906 1.194 10.663 2.9a9.017 9.017 0 0 0 .915-3.959c0-5.616-5.184-10.458-11.577-10.458S1.069 17.22 1.069 22.835a9.025 9.025 0 0 0 .915 3.958c1.755-1.704 5.87-2.893 10.661-2.893z" transform="translate(-0.535 -10.551)"/>
                        <path id="패스_2423" fill="#00a1df" d="M12.672 24.009c4.78 0 8.882 1.182 10.633 2.871a8.876 8.876 0 0 0 .912-3.922c0-5.562-5.17-10.379-11.546-10.379S1.126 17.4 1.126 22.959a8.893 8.893 0 0 0 .912 3.922c1.752-1.69 5.855-2.872 10.634-2.872z" transform="translate(-0.563 -10.652)"/>
                        <path id="패스_2424" fill="#00a3e1" d="M12.7 24.123c4.766 0 8.857 1.17 10.6 2.844a8.734 8.734 0 0 0 .91-3.885c0-5.51-5.156-10.3-11.514-10.3s-11.51 4.791-11.51 10.301a8.748 8.748 0 0 0 .914 3.884c1.742-1.674 5.835-2.844 10.6-2.844z" transform="translate(-0.593 -10.753)"/>
                        <path id="패스_2425" fill="#00a5e2" d="M12.727 24.237c4.755 0 8.834 1.159 10.576 2.817a8.61 8.61 0 0 0 .908-3.848c0-5.456-5.142-10.222-11.485-10.222S1.243 17.749 1.243 23.207a8.625 8.625 0 0 0 .908 3.847c1.743-1.654 5.824-2.817 10.576-2.817z" transform="translate(-0.622 -10.854)"/>
                        <path id="패스_2426" fill="#00a7e3" d="M12.756 24.352c4.741 0 8.811 1.148 10.548 2.79a8.482 8.482 0 0 0 .9-3.811c0-5.4-5.126-10.143-11.452-10.143S1.3 17.928 1.3 23.332a8.5 8.5 0 0 0 .9 3.81c1.747-1.642 5.817-2.79 10.556-2.79z" transform="translate(-0.652 -10.957)"/>
                        <path id="패스_2427" fill="#00aae4" d="M12.784 24.465c4.728 0 8.787 1.138 10.518 2.763a8.347 8.347 0 0 0 .9-3.774c0-5.351-5.113-10.064-11.422-10.064S1.363 18.1 1.363 23.454a8.368 8.368 0 0 0 .9 3.774C4 25.6 8.057 24.465 12.784 24.465z" transform="translate(-0.681 -11.058)"/>
                        <path id="패스_2428" fill="#00ace6" d="M12.813 24.579c4.715 0 8.762 1.125 10.49 2.735a8.209 8.209 0 0 0 .9-3.737c0-5.3-5.1-9.985-11.39-9.985s-11.39 4.687-11.39 9.986a8.231 8.231 0 0 0 .9 3.736C4.05 25.7 8.1 24.579 12.813 24.579z" transform="translate(-0.711 -11.159)"/>
                        <path id="패스_2429" fill="#00afe7" d="M12.841 24.693c4.7 0 8.739 1.114 10.46 2.708a8.075 8.075 0 0 0 .9-3.7c0-5.246-5.085-9.906-11.359-9.906S1.482 18.456 1.482 23.7a8.1 8.1 0 0 0 .9 3.7c1.718-1.593 5.758-2.707 10.459-2.707z" transform="translate(-0.741 -11.26)"/>
                        <path id="패스_2430" fill="#00b1e9" d="M12.87 24.809c4.689 0 8.716 1.1 10.432 2.68a7.935 7.935 0 0 0 .9-3.662C24.2 18.633 19.127 14 12.87 14S1.542 18.634 1.542 23.826a7.973 7.973 0 0 0 .895 3.662c1.718-1.578 5.745-2.679 10.433-2.679z" transform="translate(-0.771 -11.362)"/>
                        <path id="패스_2431" fill="#10b4ea" d="M12.9 24.922c4.677 0 8.693 1.091 10.4 2.653a7.822 7.822 0 0 0 .894-3.625c0-5.141-5.057-9.748-11.3-9.748S1.6 18.809 1.6 23.95a7.849 7.849 0 0 0 .892 3.625c1.715-1.562 5.731-2.653 10.408-2.653z" transform="translate(-0.801 -11.463)"/>
                        <path id="패스_2432" fill="#18b6ec" d="M12.926 25.036c4.662 0 8.667 1.08 10.375 2.625a7.7 7.7 0 0 0 .891-3.587c0-5.089-5.042-9.671-11.265-9.671S1.66 18.985 1.66 24.074a7.725 7.725 0 0 0 .89 3.587c1.709-1.546 5.713-2.625 10.376-2.625z" transform="translate(-0.83 -11.564)"/>
                        <path id="패스_2433" fill="#24b9ed" d="M12.953 25.15c4.65 0 8.645 1.069 10.345 2.6a7.547 7.547 0 0 0 .889-3.551c0-5.035-5.027-9.59-11.234-9.59S1.719 19.162 1.719 24.2a7.594 7.594 0 0 0 .888 3.551C4.311 26.219 8.3 25.15 12.953 25.15z" transform="translate(-0.859 -11.666)"/>
                        <path id="패스_2434" fill="#2dbbee" d="M12.981 25.263c4.638 0 8.622 1.058 10.318 2.57a7.442 7.442 0 0 0 .885-3.513c0-4.983-5.013-9.512-11.2-9.512s-11.2 4.528-11.2 9.512a7.469 7.469 0 0 0 .885 3.513c1.694-1.512 5.675-2.57 10.312-2.57z" transform="translate(-0.889 -11.767)"/>
                        <path id="패스_2435" fill="#36bdef" d="M13.01 25.378c4.625 0 8.6 1.045 10.289 2.544a7.306 7.306 0 0 0 .883-3.477c0-4.93-5-9.434-11.172-9.434s-11.172 4.5-11.172 9.434a7.344 7.344 0 0 0 .882 3.477c1.695-1.499 5.666-2.544 10.29-2.544z" transform="translate(-0.919 -11.868)"/>
                        <path id="패스_2436" fill="#43bfef" d="M13.026 25.5c4.618 0 8.585 1.039 10.275 2.527a7.235 7.235 0 0 0 .882-3.454c0-4.9-4.993-9.375-11.157-9.375S1.869 19.676 1.869 24.574a7.267 7.267 0 0 0 .882 3.454C4.442 26.54 8.408 25.5 13.026 25.5z" transform="translate(-0.934 -11.962)"/>
                        <path id="패스_2437" fill="#50c1f0" d="M13.04 25.623c4.613 0 8.574 1.032 10.261 2.511a7.165 7.165 0 0 0 .881-3.431c0-4.866-4.986-9.317-11.142-9.317S1.9 19.838 1.9 24.7a7.189 7.189 0 0 0 .881 3.431c1.687-1.476 5.648-2.507 10.259-2.508z" transform="translate(-0.949 -12.056)"/>
                        <path id="패스_2438" fill="#5ac3f0" d="M13.055 25.745c4.606 0 8.563 1.026 10.247 2.495a7.09 7.09 0 0 0 .88-3.409c0-4.834-4.979-9.259-11.127-9.259S1.928 20 1.928 24.831a7.133 7.133 0 0 0 .879 3.409c1.693-1.469 5.644-2.495 10.248-2.495z" transform="translate(-0.964 -12.148)"/>
                        <path id="패스_2439" fill="#65c6f1" d="M13.07 25.867c4.6 0 8.55 1.019 10.233 2.479a7.037 7.037 0 0 0 .878-3.386c0-4.8-4.972-9.2-11.111-9.2s-11.112 4.4-11.112 9.2a7.048 7.048 0 0 0 .878 3.386c1.685-1.46 5.635-2.479 10.234-2.479z" transform="translate(-0.979 -12.241)"/>
                        <path id="패스_2440" fill="#6dc8f2" d="M13.085 25.989c4.594 0 8.538 1.011 10.219 2.461a6.945 6.945 0 0 0 .878-3.364c0-4.769-4.966-9.144-11.1-9.144s-11.1 4.375-11.1 9.144a6.969 6.969 0 0 0 .876 3.364c1.69-1.45 5.635-2.461 10.227-2.461z" transform="translate(-0.994 -12.334)"/>
                        <path id="패스_2441" fill="#74caf2" d="M13.1 26.112c4.586 0 8.526 1.006 10.205 2.444a6.877 6.877 0 0 0 .876-3.341c0-4.737-4.96-9.086-11.081-9.086s-11.081 4.35-11.081 9.086a6.889 6.889 0 0 0 .875 3.341c1.681-1.439 5.62-2.444 10.206-2.444z" transform="translate(-1.009 -12.428)"/>
                        <path id="패스_2442" fill="#7dccf3" d="M13.115 26.233c4.58 0 8.515 1 10.191 2.429a6.808 6.808 0 0 0 .875-3.319c0-4.7-4.952-9.027-11.066-9.027S2.049 20.639 2.049 25.343a6.82 6.82 0 0 0 .873 3.319c1.678-1.429 5.614-2.429 10.193-2.429z" transform="translate(-1.025 -12.521)"/>
                        <path id="패스_2443" fill="#83cff3" d="M13.13 26.357c4.575 0 8.5.991 10.177 2.412a6.72 6.72 0 0 0 .875-3.3c0-4.673-4.946-8.968-11.051-8.968S2.079 20.8 2.079 25.473a6.741 6.741 0 0 0 .872 3.3c1.677-1.424 5.606-2.415 10.179-2.416z" transform="translate(-1.04 -12.615)"/>
                        <path id="패스_2444" fill="#8ad1f4" d="M13.146 26.479c4.569 0 8.491.986 10.163 2.4a6.647 6.647 0 0 0 .872-3.272c0-4.642-4.94-8.911-11.035-8.911S2.109 20.961 2.109 25.6a6.676 6.676 0 0 0 .871 3.273c1.676-1.408 5.599-2.394 10.166-2.394z" transform="translate(-1.055 -12.708)"/>
                        <path id="패스_2445" fill="#91d3f4" d="M13.161 26.6c4.563 0 8.479.978 10.149 2.378a6.58 6.58 0 0 0 .872-3.25c0-4.61-4.932-8.854-11.02-8.854S2.139 21.123 2.139 25.732a6.594 6.594 0 0 0 .87 3.25C4.681 27.58 8.6 26.6 13.161 26.6z" transform="translate(-1.069 -12.802)"/>
                        <path id="패스_2446" fill="#98d5f5" d="M13.176 26.723c4.556 0 8.467.972 10.135 2.363a6.508 6.508 0 0 0 .87-3.228c0-4.577-4.926-8.8-11.005-8.8s-11.007 4.219-11.007 8.8a6.518 6.518 0 0 0 .869 3.228c1.67-1.386 5.583-2.362 10.138-2.363z" transform="translate(-1.085 -12.894)"/>
                        <path id="패스_2447" fill="#9fd8f6" d="M13.192 26.845c4.548 0 8.455.966 10.121 2.347a6.429 6.429 0 0 0 .869-3.205c0-4.545-4.919-8.737-10.99-8.737S2.2 21.443 2.2 25.986a6.446 6.446 0 0 0 .867 3.205c1.668-1.38 5.575-2.345 10.125-2.346z" transform="translate(-1.1 -12.987)"/>
                        <path id="패스_2448" fill="#a5daf6" d="M13.206 26.968c4.543 0 8.443.958 10.106 2.329a6.357 6.357 0 0 0 .868-3.182c0-4.511-4.912-8.679-10.974-8.679S2.229 21.6 2.229 26.115A6.375 6.375 0 0 0 3.1 29.3c1.662-1.374 5.564-2.331 10.106-2.332z" transform="translate(-1.115 -13.08)"/>
                        <path id="패스_2449" fill="#aadcf7" d="M13.221 27.09c4.538 0 8.432.951 10.094 2.313a6.291 6.291 0 0 0 .868-3.16c0-4.48-4.907-8.622-10.961-8.622S2.26 21.763 2.26 26.242a6.308 6.308 0 0 0 .865 3.16c1.663-1.36 5.56-2.312 10.096-2.312z" transform="translate(-1.13 -13.173)"/>
                        <path id="패스_2450" fill="#b1dff7" d="M13.236 27.213c4.53 0 8.42.945 10.08 2.3a6.234 6.234 0 0 0 .865-3.137c0-4.449-4.9-8.563-10.945-8.563S2.29 21.925 2.29 26.372a6.237 6.237 0 0 0 .863 3.137c1.662-1.351 5.553-2.295 10.083-2.296z" transform="translate(-1.145 -13.267)"/>
                        <path id="패스_2451" fill="#b6e1f8" d="M13.252 27.335c4.524 0 8.408.939 10.066 2.28a6.159 6.159 0 0 0 .864-3.114c0-4.417-4.893-8.505-10.93-8.505S2.32 22.085 2.32 26.5a6.159 6.159 0 0 0 .862 3.114c1.66-1.34 5.545-2.279 10.07-2.279z" transform="translate(-1.16 -13.36)"/>
                        <path id="패스_2452" fill="#bbe3f8" d="M13.267 27.457c4.518 0 8.4.932 10.052 2.265a6.1 6.1 0 0 0 .862-3.092c0-4.384-4.886-8.447-10.914-8.447S2.35 22.247 2.35 26.629a6.1 6.1 0 0 0 .86 3.093c1.658-1.333 5.539-2.263 10.057-2.265z" transform="translate(-1.175 -13.454)"/>
                        <path id="패스_2453" fill="#c1e5f9" d="M13.282 27.579c4.512 0 8.384.925 10.038 2.248a6.021 6.021 0 0 0 .862-3.07c0-4.352-4.881-8.389-10.9-8.389s-10.9 4.038-10.9 8.389a6.019 6.019 0 0 0 .859 3.07c1.654-1.327 5.529-2.246 10.041-2.248z" transform="translate(-1.19 -13.547)"/>
                        <path id="패스_2454" fill="#c6e7f9" d="M13.3 27.7c4.5 0 8.373.919 10.024 2.231a5.953 5.953 0 0 0 .861-3.047c0-4.32-4.873-8.331-10.884-8.331s-10.89 4.013-10.89 8.332a5.95 5.95 0 0 0 .858 3.048C4.922 28.621 8.792 27.7 13.3 27.7z" transform="translate(-1.206 -13.64)"/>
                        <path id="패스_2455" fill="#cbe9fa" d="M13.312 27.823c4.5 0 8.361.913 10.01 2.215a5.883 5.883 0 0 0 .859-3.024c0-4.287-4.867-8.273-10.869-8.273S2.44 22.727 2.44 27.014a5.883 5.883 0 0 0 .86 3.024c1.648-1.302 5.513-2.212 10.012-2.215z" transform="translate(-1.22 -13.733)"/>
                        <path id="패스_2456" fill="#d0ebfa" d="M13.327 27.946c4.492 0 8.349.905 9.995 2.2a5.815 5.815 0 0 0 .859-3c0-4.256-4.86-8.216-10.854-8.216S2.471 22.888 2.471 27.143a5.809 5.809 0 0 0 .855 3c1.649-1.292 5.509-2.196 10.001-2.197z" transform="translate(-1.235 -13.826)"/>
                        <path id="패스_2457" fill="#d5edfa" d="M13.341 28.07c4.486 0 8.337.9 9.982 2.181a5.732 5.732 0 0 0 .857-2.978c0-4.225-4.854-8.157-10.839-8.157S2.5 23.049 2.5 27.272a5.745 5.745 0 0 0 .854 2.98C5 28.968 8.856 28.071 13.341 28.07z" transform="translate(-1.25 -13.921)"/>
                        <path id="패스_2458" fill="#dbeffb" d="M13.357 28.192c4.481 0 8.326.892 9.968 2.165a5.678 5.678 0 0 0 .856-2.955c0-4.193-4.847-8.1-10.823-8.1S2.531 23.209 2.531 27.4a5.674 5.674 0 0 0 .853 2.957c1.645-1.274 5.493-2.165 9.973-2.165z" transform="translate(-1.266 -14.013)"/>
                        <path id="패스_2459" fill="#dff1fb" d="M13.372 28.313c4.474 0 8.313.885 9.955 2.148a5.609 5.609 0 0 0 .854-2.934c0-4.159-4.841-8.04-10.809-8.04S2.561 23.369 2.561 27.528a5.607 5.607 0 0 0 .852 2.935c1.642-1.263 5.487-2.149 9.959-2.15z" transform="translate(-1.281 -14.106)"/>
                        <path id="패스_2460" fill="#e4f3fc" d="M13.387 28.435c4.468 0 8.3.878 9.94 2.133a5.547 5.547 0 0 0 .854-2.911c0-4.127-4.834-7.984-10.794-7.984S2.59 23.53 2.59 27.656a5.536 5.536 0 0 0 .85 2.913c1.641-1.256 5.48-2.132 9.947-2.134z" transform="translate(-1.295 -14.199)"/>
                        <path id="패스_2461" fill="#e9f5fc" d="M13.4 28.558c4.462 0 8.29.872 9.926 2.117a5.479 5.479 0 0 0 .852-2.887c0-4.1-4.827-7.926-10.778-7.926s-10.779 3.83-10.779 7.924a5.47 5.47 0 0 0 .849 2.889c1.638-1.245 5.47-2.115 9.93-2.117z" transform="translate(-1.31 -14.293)"/>
                        <path id="패스_2462" fill="#edf7fd" d="M13.418 28.679c4.455 0 8.279.866 9.913 2.1a5.414 5.414 0 0 0 .85-2.865c0-4.064-4.821-7.868-10.762-7.868S2.652 23.851 2.652 27.912A5.406 5.406 0 0 0 3.5 30.78c1.635-1.235 5.463-2.099 9.918-2.101z" transform="translate(-1.326 -14.385)"/>
                        <path id="패스_2463" fill="#f1f9fd" d="M13.432 28.8c4.449 0 8.267.859 9.9 2.082a5.338 5.338 0 0 0 .849-2.844c0-4.03-4.813-7.809-10.747-7.809S2.68 24.011 2.68 28.04a5.334 5.334 0 0 0 .846 2.844C5.161 29.66 8.983 28.8 13.432 28.8z" transform="translate(-1.34 -14.479)"/>
                        <path id="패스_2464" fill="#f7fbfd" d="M13.447 28.924c4.442 0 8.255.853 9.884 2.067a5.277 5.277 0 0 0 .849-2.822c0-4-4.808-7.751-10.733-7.751S2.711 24.172 2.711 28.17a5.273 5.273 0 0 0 .845 2.823c1.632-1.216 5.444-2.067 9.891-2.069z" transform="translate(-1.356 -14.572)"/>
                        <path id="패스_2465" fill="#fbfdff" d="M13.463 29.047c4.436 0 8.242.845 9.87 2.049a5.206 5.206 0 0 0 .848-2.8c0-3.966-4.8-7.693-10.719-7.693s-10.72 3.73-10.72 7.697a5.2 5.2 0 0 0 .843 2.8c1.63-1.208 5.441-2.051 9.878-2.053z" transform="translate(-1.371 -14.665)"/>
                        <path id="패스_2466" d="M13.478 29.167c4.43 0 8.231.84 9.857 2.034a5.144 5.144 0 0 0 .846-2.775c0-3.935-4.794-7.635-10.7-7.635s-10.706 3.7-10.706 7.635a5.142 5.142 0 0 0 .839 2.774c1.627-1.193 5.433-2.029 9.864-2.033z" class="cls-2" transform="translate(-1.386 -14.758)"/>
                    </g>
                </g>
            </g>
            <path id="패스_2468" d="M13.736 29.689a30.118 30.118 0 0 0-10.446 1.77 11.44 11.44 0 0 0 20.9 0 30.161 30.161 0 0 0-10.454-1.77z" class="cls-3" transform="translate(-1.552 -14.845)"/>
        </g>
    </g>
</svg>
