<svg xmlns="http://www.w3.org/2000/svg" version="1.0" viewBox="0 0 108.417 26.8833">
  <path fill="#816bff" d="M8.1,26.8h4c1.4,0,2.6-1.2,2.6-2.6v-0.5c0-1.4-1.2-2.6-2.6-2.6h-4c-1.3,0-2.4-1.1-2.4-2.4V2.6 C5.7,1.2,4.5,0,3.1,0H2.6C1.2,0,0,1.2,0,2.6v16.1C0,23.2,3.7,26.8,8.1,26.8z M58.3,5.7H61v3v9.5v5.9c0,1.4,1.2,2.6,2.6,2.6h0.5 c1.4,0,2.6-1.2,2.6-2.6v-6V8.7v-3h2.7c1.4,0,2.6-1.2,2.6-2.6V2.6c0-1.4-1.2-2.6-2.6-2.6h-4.8h-0.8h-5.6c-1.4,0-2.6,1.2-2.6,2.6v0.5 C55.7,4.5,56.9,5.7,58.3,5.7z M76.8,26.8c0.2,0,0.3,0,0.5,0h0.5h5.1h0.8h4.1c1.4,0,2.6-1.2,2.6-2.6v-0.5c0-1.4-1.2-2.6-2.6-2.6h-4.1 h-0.8h-2.5v-2.9v-1.9h2.5h0.8h2.4c1.4,0,2.6-1.2,2.6-2.6v-0.5c0-1.4-1.2-2.6-2.6-2.6h-2.4h-0.8h-2.5V8.6V5.7h2.5h0.8h4.1 c1.4,0,2.6-1.2,2.6-2.6V2.6c0-1.4-1.2-2.6-2.6-2.6h-4.1h-0.8h-5.1h-0.5c-1.4,0-2.6,1.2-2.6,2.6v0.5v5.5v4.5v0.5v4.5v5.5v0.5 C74.7,25.5,75.6,26.5,76.8,26.8z M20.7,26.8h0.5c1.4,0,2.6-1.2,2.6-2.6v-4.5h4.8v4.5c0,1.4,1.2,2.6,2.6,2.6h0.5 c1.4,0,2.6-1.2,2.6-2.6V8.1c0-4.7-4-8.5-8.8-8.1c-4.2,0.3-7.5,4-7.5,8.2v15.9C18.1,25.6,19.2,26.8,20.7,26.8z M23.8,8.2 c0-1.2,0.8-2.3,2-2.4c1.5-0.2,2.8,0.9,2.8,2.4V14h-4.8V8.2z M46.4,5.7h4c1.4,0,2.6-1.2,2.6-2.6V2.6c0-1.4-1.2-2.6-2.6-2.6h-4 c-4.5,0-8.1,3.7-8.1,8.1v16.1c0,1.4,1.2,2.6,2.6,2.6h0.5c1.4,0,2.6-1.2,2.6-2.6V17h2.5h0.8h3.2c1.4,0,2.6-1.2,2.6-2.6v-0.5 c0-1.4-1.2-2.6-2.6-2.6h-3.2h-0.8H44V8.1C44,6.8,45.1,5.7,46.4,5.7z M101.8,26.8h4c1.4,0,2.6-1.2,2.6-2.6v-0.5 c0-1.4-1.2-2.6-2.6-2.6h-4c-1.3,0-2.4-1.1-2.4-2.4V2.6c0-1.4-1.2-2.6-2.6-2.6h-0.5c-1.4,0-2.6,1.2-2.6,2.6v16.1 C93.7,23.2,97.3,26.8,101.8,26.8z"></path>
</svg>