<svg width="30" height="30" viewBox="0 0 30 30" fill="none" xmlns="http://www.w3.org/2000/svg">
<g clip-path="url(#clip0_462_219)">
<rect width="30" height="30" fill="white"/>
<g clip-path="url(#clip1_462_219)">
<path d="M11.6456 1.85073C12.0246 1.47314 12.6681 1.39205 13.4344 1.6253C14.2008 1.85855 15.0273 2.38703 15.7321 3.09449C16.4369 3.80194 16.9622 4.63042 17.1926 5.39767C17.4229 6.16491 17.3394 6.80807 16.9604 7.18566L14.303 4.5182L11.6456 1.85073Z" fill="#97E195"/>
<path d="M17.1045 7.01143C16.7302 7.39365 16.0877 7.48264 15.3186 7.25882C14.5494 7.035 13.7165 6.51671 13.0031 5.81797C12.2896 5.11922 11.7541 4.29726 11.5144 3.5329C11.2746 2.76855 11.3503 2.12441 11.7246 1.74219L14.4146 4.37681L17.1045 7.01143Z" fill="#97E195"/>
<path d="M17.8093 8.04678L15.1133 7.19628L17.1822 5.29022L17.8093 8.04678Z" fill="#97E195"/>
<path d="M10.6873 1.0489L13.453 1.63426L11.5784 3.73176L10.6873 1.0489Z" fill="#97E195"/>
<path d="M20.7539 25C20.7539 27.7614 18.5153 30 15.7539 30C12.9925 30 10.7539 27.7614 10.7539 25C10.7539 22.2386 12.9925 20 15.7539 20C18.5153 20 20.7539 22.2386 20.7539 25Z" fill="#A5A9F8"/>
<path d="M20.75 25C20.75 27.7614 18.5114 30 15.75 30C12.9886 30 10.75 27.7614 10.75 25C10.75 22.2386 12.9886 20 15.75 20C18.5114 20 20.75 22.2386 20.75 25ZM11.9693 25C11.9693 27.088 13.662 28.7807 15.75 28.7807C17.838 28.7807 19.5307 27.088 19.5307 25C19.5307 22.912 17.838 21.2193 15.75 21.2193C13.662 21.2193 11.9693 22.912 11.9693 25Z" fill="white"/>
<path d="M23.5 19.25C23.5 21.8734 21.3734 24 18.75 24C16.1266 24 14 21.8734 14 19.25C14 16.6266 16.1266 14.5 18.75 14.5C21.3734 14.5 23.5 16.6266 23.5 19.25Z" fill="#A5A9F8"/>
<path d="M23.5 19.25C23.5 21.8734 21.3734 24 18.75 24C16.1266 24 14 21.8734 14 19.25C14 16.6266 16.1266 14.5 18.75 14.5C21.3734 14.5 23.5 16.6266 23.5 19.25ZM15.1583 19.25C15.1583 21.2336 16.7664 22.8417 18.75 22.8417C20.7336 22.8417 22.3417 21.2336 22.3417 19.25C22.3417 17.2664 20.7336 15.6583 18.75 15.6583C16.7664 15.6583 15.1583 17.2664 15.1583 19.25Z" fill="white"/>
<path d="M16.5 19.7422C16.5 22.3655 14.3734 24.4922 11.75 24.4922C9.12665 24.4922 7 22.3655 7 19.7422C7 17.1188 9.12665 14.9922 11.75 14.9922C14.3734 14.9922 16.5 17.1188 16.5 19.7422Z" fill="#A5A9F8"/>
<path d="M16.5 19.7578C16.5 22.3812 14.3734 24.5078 11.75 24.5078C9.12665 24.5078 7 22.3812 7 19.7578C7 17.1345 9.12665 15.0078 11.75 15.0078C14.3734 15.0078 16.5 17.1345 16.5 19.7578ZM8.15833 19.7578C8.15833 21.7414 9.76637 23.3495 11.75 23.3495C13.7336 23.3495 15.3417 21.7414 15.3417 19.7578C15.3417 17.7742 13.7336 16.1661 11.75 16.1661C9.76637 16.1661 8.15833 17.7742 8.15833 19.7578Z" fill="white"/>
<path d="M13.502 12.7461C13.502 15.3694 11.3753 17.4961 8.75195 17.4961C6.1286 17.4961 4.00195 15.3694 4.00195 12.7461C4.00195 10.1227 6.1286 7.99609 8.75195 7.99609C11.3753 7.99609 13.502 10.1227 13.502 12.7461Z" fill="#A5A9F8"/>
<path d="M13.5 12.75C13.5 15.3734 11.3734 17.5 8.75 17.5C6.12665 17.5 4 15.3734 4 12.75C4 10.1266 6.12665 8 8.75 8C11.3734 8 13.5 10.1266 13.5 12.75ZM5.15833 12.75C5.15833 14.7336 6.76637 16.3417 8.75 16.3417C10.7336 16.3417 12.3417 14.7336 12.3417 12.75C12.3417 10.7664 10.7336 9.15833 8.75 9.15833C6.76637 9.15833 5.15833 10.7664 5.15833 12.75Z" fill="white"/>
<path d="M26.75 12.7422C26.75 15.3655 24.6234 17.4922 22 17.4922C19.3766 17.4922 17.25 15.3655 17.25 12.7422C17.25 10.1188 19.3766 7.99219 22 7.99219C24.6234 7.99219 26.75 10.1188 26.75 12.7422Z" fill="#A5A9F8"/>
<path d="M26.7539 12.7422C26.7539 15.3655 24.6273 17.4922 22.0039 17.4922C19.3806 17.4922 17.2539 15.3655 17.2539 12.7422C17.2539 10.1188 19.3806 7.99219 22.0039 7.99219C24.6273 7.99219 26.7539 10.1188 26.7539 12.7422ZM18.4122 12.7422C18.4122 14.7258 20.0203 16.3339 22.0039 16.3339C23.9875 16.3339 25.5956 14.7258 25.5956 12.7422C25.5956 10.7586 23.9875 9.15051 22.0039 9.15051C20.0203 9.15051 18.4122 10.7586 18.4122 12.7422Z" fill="white"/>
<path d="M20.25 12.75C20.25 15.3734 18.1234 17.5 15.5 17.5C12.8766 17.5 10.75 15.3734 10.75 12.75C10.75 10.1266 12.8766 8 15.5 8C18.1234 8 20.25 10.1266 20.25 12.75Z" fill="#A5A9F8"/>
<path d="M20.25 12.75C20.25 15.3734 18.1233 17.5 15.5 17.5C12.8766 17.5 10.75 15.3734 10.75 12.75C10.75 10.1266 12.8766 8 15.5 8C18.1233 8 20.25 10.1266 20.25 12.75ZM11.9083 12.75C11.9083 14.7336 13.5164 16.3417 15.5 16.3417C17.4836 16.3417 19.0917 14.7336 19.0917 12.75C19.0917 10.7664 17.4836 9.15833 15.5 9.15833C13.5164 9.15833 11.9083 10.7664 11.9083 12.75Z" fill="white"/>
</g>
</g>
<defs>
<clipPath id="clip0_462_219">
<rect width="30" height="30" fill="white"/>
</clipPath>
<clipPath id="clip1_462_219">
<rect width="30" height="30" fill="white"/>
</clipPath>
</defs>
</svg>
