<svg width="600" height="600" viewBox="0 0 600 600" fill="none" xmlns="http://www.w3.org/2000/svg">
<circle cx="300" cy="500" r="100" fill="#A5A9F8"/>
<path d="M400 500C400 555.228 355.228 600 300 600C244.772 600 200 555.228 200 500C200 444.772 244.772 400 300 400C355.228 400 400 444.772 400 500ZM222.807 500C222.807 542.632 257.368 577.193 300 577.193C342.632 577.193 377.193 542.632 377.193 500C377.193 457.368 342.632 422.807 300 422.807C257.368 422.807 222.807 457.368 222.807 500Z" fill="white"/>
<circle cx="369" cy="375" r="100" fill="#A5A9F8"/>
<path d="M469 375C469 430.228 424.228 475 369 475C313.772 475 269 430.228 269 375C269 319.772 313.772 275 369 275C424.228 275 469 319.772 469 375ZM291.807 375C291.807 417.632 326.368 452.193 369 452.193C411.632 452.193 446.193 417.632 446.193 375C446.193 332.368 411.632 297.807 369 297.807C326.368 297.807 291.807 332.368 291.807 375Z" fill="white"/>
<circle cx="227" cy="375" r="100" fill="#A5A9F8"/>
<path d="M327 375C327 430.228 282.228 475 227 475C171.772 475 127 430.228 127 375C127 319.772 171.772 275 227 275C282.228 275 327 319.772 327 375ZM149.807 375C149.807 417.632 184.368 452.193 227 452.193C269.632 452.193 304.193 417.632 304.193 375C304.193 332.368 269.632 297.807 227 297.807C184.368 297.807 149.807 332.368 149.807 375Z" fill="white"/>
<circle cx="162" cy="235" r="100" fill="#A5A9F8"/>
<path d="M262 235C262 290.228 217.228 335 162 335C106.772 335 62 290.228 62 235C62 179.772 106.772 135 162 135C217.228 135 262 179.772 262 235ZM84.8073 235C84.8073 277.632 119.368 312.193 162 312.193C204.632 312.193 239.193 277.632 239.193 235C239.193 192.368 204.632 157.807 162 157.807C119.368 157.807 84.8073 192.368 84.8073 235Z" fill="white"/>
<circle cx="440" cy="235" r="100" fill="#A5A9F8"/>
<path d="M540 235C540 290.228 495.228 335 440 335C384.772 335 340 290.228 340 235C340 179.772 384.772 135 440 135C495.228 135 540 179.772 540 235ZM362.807 235C362.807 277.632 397.368 312.193 440 312.193C482.632 312.193 517.193 277.632 517.193 235C517.193 192.368 482.632 157.807 440 157.807C397.368 157.807 362.807 192.368 362.807 235Z" fill="white"/>
<circle cx="300" cy="235" r="100" fill="#A5A9F8"/>
<path d="M400 235C400 290.228 355.228 335 300 335C244.772 335 200 290.228 200 235C200 179.772 244.772 135 300 135C355.228 135 400 179.772 400 235ZM222.807 235C222.807 277.632 257.368 312.193 300 312.193C342.632 312.193 377.193 277.632 377.193 235C377.193 192.368 342.632 157.807 300 157.807C257.368 157.807 222.807 192.368 222.807 235Z" fill="white"/>
<path d="M333.633 134.973C319.84 133.227 295 127 280 122C261.5 114.5 255 112.773 237 97C222.5 80.7734 217.246 71.5364 212 54C208.16 36.5 206.5 26.2266 204.373 5.2312L268.377 69.2835L333.633 134.973Z" fill="#97E195"/>
<path d="M204.029 5C217.825 6.72357 233.993 10.031 253 14.5C270 20.5 279.5 25 298.5 40.5C313 58.5 315.5 64 321.5 82C326 99 330 113.5 333.5 135L269.393 70.5825L204.029 5Z" fill="#97E195"/>
</svg>
