<svg width="24" height="24" viewBox="0 0 24 24" fill="none" xmlns="http://www.w3.org/2000/svg">
<path d="M15.9199 18.4993C15.9199 20.4323 14.3529 21.9993 12.4199 21.9993C10.4869 21.9993 8.91992 20.4323 8.91992 18.4993C8.91992 16.5663 10.4869 14.9993 12.4199 14.9993C14.3529 14.9993 15.9199 16.5663 15.9199 18.4993Z" fill="#BEC1FF"/>
<path d="M15.9209 18.4988C15.9209 20.4318 14.3539 21.9988 12.4209 21.9988C10.4879 21.9988 8.9209 20.4318 8.9209 18.4988C8.9209 16.5658 10.4879 14.9988 12.4209 14.9988C14.3539 14.9988 15.9209 16.5658 15.9209 18.4988ZM9.7744 18.4988C9.7744 19.9604 10.9593 21.1453 12.4209 21.1453C13.8825 21.1453 15.0674 19.9604 15.0674 18.4988C15.0674 17.0372 13.8825 15.8523 12.4209 15.8523C10.9593 15.8523 9.7744 17.0372 9.7744 18.4988Z" fill="white"/>
<path d="M18 14.5C18 16.433 16.433 18 14.5 18C12.567 18 11 16.433 11 14.5C11 12.567 12.567 11 14.5 11C16.433 11 18 12.567 18 14.5Z" fill="#BEC1FF"/>
<path d="M18 14.5C18 16.433 16.433 18 14.5 18C12.567 18 11 16.433 11 14.5C11 12.567 12.567 11 14.5 11C16.433 11 18 12.567 18 14.5ZM11.8535 14.5C11.8535 15.9616 13.0384 17.1465 14.5 17.1465C15.9616 17.1465 17.1465 15.9616 17.1465 14.5C17.1465 13.0384 15.9616 11.8535 14.5 11.8535C13.0384 11.8535 11.8535 13.0384 11.8535 14.5Z" fill="white"/>
<path d="M13 14.5C13 16.433 11.433 18 9.5 18C7.567 18 6 16.433 6 14.5C6 12.567 7.567 11 9.5 11C11.433 11 13 12.567 13 14.5Z" fill="#BEC1FF"/>
<path d="M13 14.5C13 16.433 11.433 18 9.49999 18C7.56699 18 5.99999 16.433 5.99999 14.5C5.99999 12.567 7.56699 11 9.49999 11C11.433 11 13 12.567 13 14.5ZM6.85349 14.5C6.85349 15.9616 8.03837 17.1465 9.49999 17.1465C10.9616 17.1465 12.1465 15.9616 12.1465 14.5C12.1465 13.0384 10.9616 11.8535 9.49999 11.8535C8.03837 11.8535 6.85349 13.0384 6.85349 14.5Z" fill="white"/>
<path d="M11 9.50786C11 11.4409 9.433 13.0079 7.5 13.0079C5.567 13.0079 4 11.4409 4 9.50786C4 7.57486 5.567 6.00786 7.5 6.00786C9.433 6.00786 11 7.57486 11 9.50786Z" fill="#BEC1FF"/>
<path d="M11 9.50781C11 11.4408 9.43299 13.0078 7.49999 13.0078C5.56699 13.0078 3.99999 11.4408 3.99999 9.50781C3.99999 7.57482 5.56699 6.00781 7.49999 6.00781C9.43299 6.00781 11 7.57482 11 9.50781ZM4.85349 9.50781C4.85349 10.9694 6.03837 12.1543 7.49999 12.1543C8.96161 12.1543 10.1465 10.9694 10.1465 9.50781C10.1465 8.04619 8.96161 6.86132 7.49999 6.86132C6.03837 6.86132 4.85349 8.04619 4.85349 9.50781Z" fill="white"/>
<path d="M20.7847 9.50122C20.7847 11.4342 19.2177 13.0012 17.2847 13.0012C15.3517 13.0012 13.7847 11.4342 13.7847 9.50122C13.7847 7.56822 15.3517 6.00122 17.2847 6.00122C19.2177 6.00122 20.7847 7.56822 20.7847 9.50122Z" fill="#BEC1FF"/>
<path d="M20.7959 9.5C20.7959 11.433 19.2289 13 17.2959 13C15.3629 13 13.7959 11.433 13.7959 9.5C13.7959 7.567 15.3629 6 17.2959 6C19.2289 6 20.7959 7.567 20.7959 9.5ZM14.6494 9.5C14.6494 10.9616 15.8343 12.1465 17.2959 12.1465C18.7575 12.1465 19.9424 10.9616 19.9424 9.5C19.9424 8.03838 18.7575 6.8535 17.2959 6.8535C15.8343 6.8535 14.6494 8.03838 14.6494 9.5Z" fill="white"/>
<path d="M16 9.50786C16 11.4409 14.433 13.0079 12.5 13.0079C10.567 13.0079 9 11.4409 9 9.50786C9 7.57486 10.567 6.00786 12.5 6.00786C14.433 6.00786 16 7.57486 16 9.50786Z" fill="#BEC1FF"/>
<path d="M16 9.50781C16 11.4408 14.433 13.0078 12.5 13.0078C10.567 13.0078 8.99999 11.4408 8.99999 9.50781C8.99999 7.57482 10.567 6.00781 12.5 6.00781C14.433 6.00781 16 7.57482 16 9.50781ZM9.85349 9.50781C9.85349 10.9694 11.0384 12.1543 12.5 12.1543C13.9616 12.1543 15.1465 10.9694 15.1465 9.50781C15.1465 8.04619 13.9616 6.86132 12.5 6.86132C11.0384 6.86132 9.85349 8.04619 9.85349 9.50781Z" fill="white"/>
<path d="M13.4056 6.40575C13.2479 6.56343 12.8959 6.51389 12.4271 6.26802C11.9582 6.02215 11.4109 5.60009 10.9055 5.0947C10.4001 4.5893 9.97802 4.04196 9.73215 3.57309C9.48628 3.10423 9.43673 2.75223 9.59442 2.59455L11.5 4.50015L13.4056 6.40575Z" fill="#ADFEAB"/>
<path d="M9.59334 2.5988C9.75132 2.44142 10.1031 2.49156 10.5714 2.73819C11.0397 2.98482 11.5861 3.40774 12.0903 3.91391C12.5946 4.42008 13.0154 4.96804 13.2603 5.43725C13.5051 5.90646 13.5539 6.25847 13.396 6.41586L11.4947 4.50733L9.59334 2.5988Z" fill="#ADFEAB"/>
<path d="M9.34523 2.36008L10.1829 2.5743L9.58325 3.1913L9.34523 2.36008Z" fill="#ADFEAB"/>
<path d="M13.606 6.68577L12.7814 6.42565L13.4142 5.84269L13.606 6.68577Z" fill="#ADFEAB"/>
</svg>
