<svg width="40" height="40" viewBox="0 0 40 40" fill="none" xmlns="http://www.w3.org/2000/svg">
<circle cx="20" cy="20" r="20" fill="#A5A9F8"/>
<path d="M24.6498 3.14981C26.8225 3.45409 28.9058 4.21614 30.762 5.38555C32.6183 6.55496 34.2051 8.10511 35.4176 9.93348C36.6301 11.7618 37.4407 13.8268 37.7957 15.9917C38.1507 18.1567 38.0421 20.3724 37.477 22.4922L35.0373 21.8419C35.5104 20.0674 35.6013 18.2126 35.3041 16.4003C35.0069 14.588 34.3284 12.8595 33.3134 11.3289C32.2984 9.7984 30.97 8.50077 29.4162 7.52184C27.8623 6.54292 26.1184 5.90501 24.2996 5.6503L24.6498 3.14981Z" fill="white" fill-opacity="0.79"/>
<path d="M36.6591 25.1521C36.1854 26.0758 35.6202 26.9495 34.9719 27.7602L33 26.1832C33.5427 25.5046 34.0159 24.7732 34.4124 24L36.6591 25.1521Z" fill="white" fill-opacity="0.79"/>
<circle cx="14" cy="17" r="2" fill="black"/>
<circle cx="28" cy="17" r="2" fill="black"/>
<path d="M27.6405 24.3723C27.2728 25.5569 26.6347 26.6398 25.7766 27.5355C24.9184 28.4311 23.8638 29.1149 22.696 29.533C21.5282 29.951 20.2791 30.0917 19.0476 29.944C17.816 29.7963 16.5359 29.6822 15.5 29L16 28C16.8323 28.5482 18.7652 28.5 19.5 28.5C20.5 28.5 21.5617 28.3359 22.5 28C23.4383 27.6641 23.9519 27.1674 24.6413 26.4478C25.3308 25.7282 25.8435 24.8581 26.1389 23.9062L27.6405 24.3723Z" fill="black"/>
<rect x="8" y="15" width="8" height="1" fill="black"/>
<rect x="22" y="15" width="8" height="1" fill="black"/>
</svg>
