<svg width="40" height="40" viewBox="0 0 40 40" fill="none" xmlns="http://www.w3.org/2000/svg">
<circle cx="20" cy="20" r="20" fill="#A5A9F8"/>
<path d="M24.6498 3.14981C26.8225 3.45409 28.9058 4.21614 30.762 5.38555C32.6183 6.55496 34.2051 8.10511 35.4176 9.93348C36.6301 11.7618 37.4407 13.8268 37.7957 15.9917C38.1507 18.1567 38.0421 20.3724 37.477 22.4922L35.0373 21.8419C35.5104 20.0674 35.6013 18.2126 35.3041 16.4003C35.0069 14.588 34.3284 12.8595 33.3134 11.3289C32.2984 9.7984 30.97 8.50077 29.4162 7.52184C27.8623 6.54292 26.1184 5.90501 24.2996 5.6503L24.6498 3.14981Z" fill="white" fill-opacity="0.79"/>
<path d="M36.6591 25.1521C36.1854 26.0758 35.6202 26.9495 34.9719 27.7602L33 26.1832C33.5427 25.5046 34.0159 24.7732 34.4124 24L36.6591 25.1521Z" fill="white" fill-opacity="0.79"/>
<ellipse cx="27" cy="16.5" rx="2" ry="2.5" fill="black"/>
<ellipse cx="13" cy="16.5" rx="2" ry="2.5" fill="black"/>
<path d="M27.2497 25.3827C26.6034 26.7678 25.5738 27.9388 24.2828 28.7571C22.9918 29.5753 21.4933 30.0066 19.9649 29.9999C18.4364 29.9932 16.9418 29.5488 15.658 28.7192C14.3743 27.8896 13.355 26.7096 12.7209 25.3189L14.1514 24.6666C14.6609 25.7841 15.4799 26.7322 16.5113 27.3987C17.5428 28.0653 18.7437 28.4224 19.9718 28.4278C21.1999 28.4331 22.4038 28.0866 23.4411 27.4291C24.4784 26.7717 25.3057 25.8308 25.8249 24.7179L27.2497 25.3827Z" fill="black"/>
<circle cx="10" cy="24" r="3" fill="#FFD7E5"/>
<circle cx="30" cy="24" r="3" fill="#FFD7E5"/>
<path d="M25.9028 27.8447C26.0652 28.2249 26.1665 28.6267 26.201 29.0273C26.2355 29.4279 26.2025 29.8194 26.1038 30.1794C26.0051 30.5394 25.8428 30.8609 25.626 31.1255C25.4092 31.3901 25.1422 31.5927 24.8403 31.7216C24.5383 31.8506 24.2074 31.9034 23.8663 31.8771C23.5252 31.8507 23.1807 31.7457 22.8524 31.5681C22.5241 31.3904 22.2184 31.1436 21.9529 30.8417C21.6873 30.5398 21.4671 30.1888 21.3047 29.8086L23.6038 28.8266L25.9028 27.8447Z" fill="black"/>
<path d="M20.7695 28.582L23.1917 27.9998L25.3163 26.5018L26.0016 27.9998L21.4549 30.08L20.7695 28.582Z" fill="black"/>
</svg>
