<svg width="40" height="40" viewBox="0 0 40 40" fill="none" xmlns="http://www.w3.org/2000/svg">
<circle cx="20" cy="20" r="20" fill="#B8B8B9"/>
<path d="M24.6498 3.14981C26.8225 3.45409 28.9058 4.21614 30.762 5.38555C32.6183 6.55496 34.2051 8.10511 35.4176 9.93348C36.6301 11.7618 37.4407 13.8268 37.7957 15.9917C38.1507 18.1567 38.0421 20.3724 37.477 22.4922L35.0373 21.8419C35.5104 20.0674 35.6013 18.2126 35.3041 16.4003C35.0069 14.588 34.3284 12.8595 33.3134 11.3289C32.2984 9.7984 30.97 8.50077 29.4162 7.52184C27.8623 6.54292 26.1184 5.90501 24.2996 5.6503L24.6498 3.14981Z" fill="white" fill-opacity="0.79"/>
<path d="M36.6591 25.1521C36.1854 26.0758 35.6202 26.9495 34.9719 27.7602L33 26.1832C33.5427 25.5046 34.0159 24.7732 34.4124 24L36.6591 25.1521Z" fill="white" fill-opacity="0.79"/>
<ellipse cx="27" cy="16.5" rx="2" ry="2.5" fill="black"/>
<ellipse cx="13" cy="16.5" rx="2" ry="2.5" fill="black"/>
<ellipse cx="19.5" cy="27" rx="3.5" ry="4" fill="black"/>
<ellipse cx="8" cy="20.5" rx="5" ry="2.5" fill="#FFD7E5"/>
<ellipse cx="30" cy="21.5" rx="5" ry="2.5" fill="#FFD7E5"/>
</svg>
