<svg width="40" height="40" viewBox="0 0 40 40" fill="none" xmlns="http://www.w3.org/2000/svg">
<circle cx="20" cy="20" r="20" fill="#A5A9F8"/>
<path d="M24.6498 3.14981C26.8225 3.45409 28.9058 4.21614 30.762 5.38555C32.6183 6.55496 34.2051 8.10511 35.4176 9.93348C36.6301 11.7618 37.4407 13.8268 37.7957 15.9917C38.1507 18.1567 38.0421 20.3724 37.477 22.4922L35.0373 21.8419C35.5104 20.0674 35.6013 18.2126 35.3041 16.4003C35.0069 14.588 34.3284 12.8595 33.3134 11.3289C32.2984 9.7984 30.97 8.50077 29.4162 7.52184C27.8623 6.54292 26.1184 5.90501 24.2996 5.6503L24.6498 3.14981Z" fill="white" fill-opacity="0.79"/>
<path d="M36.6591 25.1521C36.1854 26.0758 35.6202 26.9495 34.9719 27.7602L33 26.1832C33.5427 25.5046 34.0159 24.7732 34.4124 24L36.6591 25.1521Z" fill="white" fill-opacity="0.79"/>
<path d="M29 23C29 25.3869 28.0518 27.6761 26.364 29.364C24.6761 31.0518 22.3869 32 20 32C17.6131 32 15.3239 31.0518 13.636 29.364C11.9482 27.6761 11 25.3869 11 23L20 23H29Z" fill="black"/>
<path d="M27 24.0754C27 24.6701 23.866 25.4983 20 25.4983C16.134 25.4983 13 24.6701 13 24.0754C13 23.4806 16.134 23.997 20 23.997C23.866 23.997 27 23.4806 27 24.0754Z" fill="white" fill-opacity="0.9"/>
<path d="M10 17L17 15.6667L10.7 13" stroke="black"/>
<path d="M29.9362 13.1972L23.8008 15.6991L29.9339 17.3038" stroke="black"/>
</svg>
