<svg width="40" height="40" viewBox="0 0 40 40" fill="none" xmlns="http://www.w3.org/2000/svg">
<circle cx="20" cy="20" r="20" fill="#A5A9F8"/>
<path d="M19.7614 23.1458C18.7878 23.0252 17.9513 22.7613 17.3443 22.3831C16.7374 22.005 16.3836 21.5273 16.3218 21.0027C16.2598 20.4782 16.4925 19.9271 16.9939 19.4103C17.4952 18.8935 18.246 18.431 19.1633 18.0738L19.8141 18.5647C19.1008 18.8425 18.517 19.2021 18.127 19.604C17.7372 20.0059 17.5563 20.4343 17.6044 20.8423C17.6525 21.2501 17.9278 21.6216 18.3996 21.9157C18.8716 22.2097 19.5219 22.415 20.279 22.5088L19.7614 23.1458Z" fill="black"/>
<path d="M24.6498 3.14981C26.8225 3.45409 28.9058 4.21614 30.762 5.38555C32.6183 6.55496 34.2051 8.10511 35.4176 9.93348C36.6301 11.7618 37.4407 13.8268 37.7957 15.9917C38.1507 18.1567 38.0421 20.3724 37.477 22.4922L35.0373 21.8419C35.5104 20.0674 35.6013 18.2126 35.3041 16.4003C35.0069 14.588 34.3284 12.8595 33.3134 11.3289C32.2984 9.7984 30.97 8.50077 29.4162 7.52184C27.8623 6.54292 26.1184 5.90501 24.2996 5.6503L24.6498 3.14981Z" fill="white" fill-opacity="0.79"/>
<path d="M36.6591 25.1521C36.1854 26.0758 35.6202 26.9495 34.9719 27.7602L33 26.1832C33.5427 25.5046 34.0159 24.7732 34.4124 24L36.6591 25.1521Z" fill="white" fill-opacity="0.79"/>
<circle cx="26.5" cy="16.5" r="1.5" fill="black"/>
<circle cx="12.5" cy="16.5" r="1.5" fill="black"/>
<path d="M25.3435 24.9598C24.7962 26.1327 23.9344 27.1309 22.854 27.8435C21.7735 28.5561 20.5166 28.9552 19.223 28.9964C17.9293 29.0377 16.6496 28.7194 15.5259 28.0771C14.4023 27.4347 13.4787 26.4934 12.8579 25.3577L14.065 24.6979C14.5638 25.6104 15.3058 26.3667 16.2087 26.8828C17.1115 27.3989 18.1397 27.6546 19.1792 27.6215C20.2186 27.5884 21.2284 27.2677 22.0966 26.6951C22.9647 26.1226 23.6571 25.3206 24.0968 24.3782L25.3435 24.9598Z" fill="black"/>
</svg>
