<svg width="40" height="40" viewBox="0 0 40 40" fill="none" xmlns="http://www.w3.org/2000/svg">
<g clip-path="url(#clip0_518_363)">
<circle cx="20" cy="20" r="20" fill="#A5A9F8"/>
<path d="M24.6498 3.14981C26.8225 3.45409 28.9058 4.21614 30.762 5.38555C32.6183 6.55496 34.2051 8.10511 35.4176 9.93348C36.6301 11.7618 37.4407 13.8268 37.7957 15.9917C38.1507 18.1567 38.0421 20.3724 37.477 22.4922L35.0373 21.8419C35.5104 20.0674 35.6013 18.2126 35.3041 16.4003C35.0069 14.588 34.3284 12.8595 33.3134 11.3289C32.2984 9.7984 30.97 8.50077 29.4162 7.52184C27.8623 6.54292 26.1184 5.90501 24.2996 5.6503L24.6498 3.14981Z" fill="white" fill-opacity="0.79"/>
<path d="M36.6591 25.1521C36.1854 26.0758 35.6202 26.9495 34.9719 27.7602L33 26.1832C33.5427 25.5046 34.0159 24.7732 34.4124 24L36.6591 25.1521Z" fill="white" fill-opacity="0.79"/>
<path d="M15.5193 30.3725C16.8098 29.5 18.327 29.0233 19.8847 29.0008C21.4423 28.9784 22.9726 29.4112 24.2878 30.2461L23.4451 31.5734C22.3884 30.9026 21.1589 30.5548 19.9073 30.5729C18.6558 30.5909 17.4368 30.9739 16.3999 31.675L15.5193 30.3725Z" fill="black"/>
<path d="M15.6914 9.24036C14.7911 10.2156 13.6622 10.9515 12.4066 11.3818C11.151 11.812 9.80804 11.9231 8.49879 11.705L8.75712 10.1542C9.80908 10.3294 10.8881 10.2402 11.897 9.89449C12.9058 9.54878 13.8128 8.9575 14.5362 8.17391L15.6914 9.24036Z" fill="black"/>
<path d="M30.6099 12.0888C29.3204 12.1545 28.0342 11.9071 26.861 11.3678C25.6879 10.8285 24.6628 10.0132 23.8731 8.9917L25.117 8.0302C25.7515 8.85099 26.5752 9.50602 27.5177 9.93935C28.4603 10.3727 29.4938 10.5714 30.5298 10.5186L30.6099 12.0888Z" fill="black"/>
<circle cx="13.5" cy="18.5" r="5.5" fill="black"/>
<circle cx="13.5" cy="18.5" r="5.5" fill="black"/>
<circle cx="13.5" cy="18.5" r="5.5" fill="black"/>
<circle cx="12" cy="17" r="3" fill="white"/>
<path d="M17.1011 20.8685C17.3755 21.3479 17.2197 22.0873 16.5007 22.4988C15.7818 22.9103 14.7719 22.8382 14.4975 22.3589C14.2231 21.8795 14.2827 20.9111 15.0017 20.4996C15.7207 20.088 16.8268 20.3892 17.1011 20.8685Z" fill="white"/>
<circle cx="26.5" cy="18.5" r="5.5" fill="black"/>
<circle cx="26.5" cy="18.5" r="5.5" fill="black"/>
<circle cx="26.5" cy="18.5" r="5.5" fill="black"/>
<circle cx="25" cy="17" r="3" fill="white"/>
<path d="M30.1011 20.8685C30.3755 21.3479 30.2197 22.0873 29.5007 22.4988C28.7818 22.9103 27.7719 22.8382 27.4975 22.3589C27.2231 21.8795 27.2827 20.9111 28.0017 20.4996C28.7207 20.088 29.8268 20.3892 30.1011 20.8685Z" fill="white"/>
<path d="M30.1011 20.8685C30.3755 21.3479 30.2197 22.0873 29.5007 22.4988C28.7818 22.9103 27.7719 22.8382 27.4975 22.3589C27.2231 21.8795 27.2827 20.9111 28.0017 20.4996C28.7207 20.088 29.8268 20.3892 30.1011 20.8685Z" fill="white"/>
<path d="M30.1011 20.8685C30.3755 21.3479 30.2197 22.0873 29.5007 22.4988C28.7818 22.9103 27.7719 22.8382 27.4975 22.3589C27.2231 21.8795 27.2827 20.9111 28.0017 20.4996C28.7207 20.088 29.8268 20.3892 30.1011 20.8685Z" fill="white"/>
</g>
<defs>
<clipPath id="clip0_518_363">
<rect width="40" height="40" fill="white"/>
</clipPath>
</defs>
</svg>
