<svg width="40" height="40" viewBox="0 0 40 40" fill="none" xmlns="http://www.w3.org/2000/svg">
<circle cx="20" cy="20" r="20" fill="#A5A9F8"/>
<path d="M23.2136 21L21 15H33V21H23.2136Z" fill="#3D9FFA" stroke="black" stroke-width="1.5"/>
<path d="M6.0004 21L6 15H18L15.7548 21H6.0004Z" fill="#FF3434" stroke="black" stroke-width="1.5"/>
<path d="M25.5732 25.706C25.0232 26.769 24.1902 27.6596 23.1662 28.2794C22.1424 28.8992 20.9672 29.2242 19.7702 29.2186C18.5734 29.2132 17.4012 28.8772 16.383 28.248C15.365 27.6188 14.5404 26.7206 14 25.6526L15.29 25C15.7102 25.8306 16.3514 26.529 17.143 27.0184C17.9348 27.5076 18.8462 27.7688 19.777 27.7732C20.7076 27.7774 21.6216 27.5246 22.4178 27.0428C23.214 26.5608 23.8616 25.8684 24.2894 25.0418L25.5732 25.706Z" fill="black"/>
<path d="M18 15H22" stroke="black" stroke-width="1.5"/>
<path d="M25.6498 4.14981C27.8225 4.45409 29.9058 5.21614 31.762 6.38555C33.6183 7.55496 35.2051 9.10511 36.4176 10.9335C37.6301 12.7618 38.4407 14.8268 38.7957 16.9917C39.1507 19.1567 39.0421 21.3724 38.477 23.4922L36.0373 22.8419C36.5104 21.0674 36.6013 19.2126 36.3041 17.4003C36.0069 15.588 35.3284 13.8595 34.3134 12.3289C33.2984 10.7984 31.97 9.50077 30.4162 8.52184C28.8623 7.54292 27.1184 6.90501 25.2996 6.6503L25.6498 4.14981Z" fill="white" fill-opacity="0.79"/>
<path d="M37.6864 25.574C37.2128 26.4977 36.6475 27.3714 35.9992 28.1821L34.0273 26.6051C34.5701 25.9265 35.0432 25.1951 35.4397 24.4219L37.6864 25.574Z" fill="white" fill-opacity="0.79"/>
</svg>
