<svg width="100" height="30" viewBox="0 0 100 30" fill="none" xmlns="http://www.w3.org/2000/svg">
<g clip-path="url(#clip0_594_134)">
<path d="M46.3389 9.18852e-08H53.4737V30H46.3389V9.18852e-08ZM17.594 9.18852e-08H0V9.20025H6.90804V29.9662H14.2487V9.20025H21.1752L18.9242 1.23039C18.8225 0.870185 18.6407 0.559622 18.4032 0.339883C18.1656 0.120145 17.8834 0.00161108 17.594 9.18852e-08V9.18852e-08ZM69.9248 13.8634L62.2672 0.898185C62.1022 0.618277 61.8915 0.391946 61.651 0.236332C61.4106 0.0807177 61.1466 -9.94734e-05 60.8791 9.18852e-08H56.4187V29.9969H63.4934V16.1273L71.1417 29.0957C71.3064 29.3761 71.517 29.6031 71.7575 29.7592C71.998 29.9154 72.2621 29.9967 72.5298 29.9969H76.9948V9.18852e-08H69.9248V13.8634ZM37.1614 1.25192L33.0318 16.5641L28.9185 1.255C28.8196 0.888474 28.6381 0.571358 28.3989 0.346801C28.1596 0.122244 27.8741 0.0011516 27.5813 9.18852e-08H20.7403L29.4228 29.9969H36.6385L45.3256 9.18852e-08H38.5009C38.208 0.00117507 37.9225 0.121871 37.683 0.345771C37.4434 0.569671 37.2613 0.885976 37.1614 1.25192V1.25192ZM99.8265 13.0483H91.8149V21.7225H87.0954V8.5912H96.2406C96.6286 8.58969 97.0072 8.43153 97.3261 8.13767C97.645 7.84381 97.8893 7.42809 98.0266 6.94556L100 9.18852e-08H79.9607V30H99.8265V13.0483Z" fill="#FF153D"/>
</g>
<defs>
<clipPath id="clip0_594_134">
<rect width="100" height="30" fill="white"/>
</clipPath>
</defs>
</svg>
