<svg width="40" height="40" viewBox="0 0 40 40" fill="none" xmlns="http://www.w3.org/2000/svg">
<circle cx="20" cy="20" r="20" fill="white"/>
<path d="M16.8956 6.85073C17.2746 6.47314 17.9181 6.39205 18.6844 6.6253C19.4508 6.85855 20.2773 7.38703 20.9821 8.09449C21.6869 8.80194 22.2122 9.63042 22.4426 10.3977C22.6729 11.1649 22.5894 11.8081 22.2104 12.1857L19.553 9.5182L16.8956 6.85073Z" fill="#97E195"/>
<path d="M22.3545 12.0114C21.9802 12.3937 21.3377 12.4826 20.5686 12.2588C19.7994 12.035 18.9665 11.5167 18.2531 10.818C17.5396 10.1192 17.0041 9.29726 16.7644 8.5329C16.5246 7.76855 16.6003 7.12441 16.9746 6.74219L19.6646 9.37681L22.3545 12.0114Z" fill="#97E195"/>
<path d="M23.0593 13.0468L20.3633 12.1963L22.4322 10.2902L23.0593 13.0468Z" fill="#97E195"/>
<path d="M15.9373 6.0489L18.703 6.63426L16.8284 8.73176L15.9373 6.0489Z" fill="#97E195"/>
<path d="M26.0039 30C26.0039 32.7614 23.7653 35 21.0039 35C18.2425 35 16.0039 32.7614 16.0039 30C16.0039 27.2386 18.2425 25 21.0039 25C23.7653 25 26.0039 27.2386 26.0039 30Z" fill="#A5A9F8"/>
<path d="M26 30C26 32.7614 23.7614 35 21 35C18.2386 35 16 32.7614 16 30C16 27.2386 18.2386 25 21 25C23.7614 25 26 27.2386 26 30ZM17.2193 30C17.2193 32.088 18.912 33.7807 21 33.7807C23.088 33.7807 24.7807 32.088 24.7807 30C24.7807 27.912 23.088 26.2193 21 26.2193C18.912 26.2193 17.2193 27.912 17.2193 30Z" fill="white"/>
<path d="M28.75 24.25C28.75 26.8734 26.6234 29 24 29C21.3766 29 19.25 26.8734 19.25 24.25C19.25 21.6266 21.3766 19.5 24 19.5C26.6234 19.5 28.75 21.6266 28.75 24.25Z" fill="#A5A9F8"/>
<path d="M28.75 24.25C28.75 26.8734 26.6234 29 24 29C21.3766 29 19.25 26.8734 19.25 24.25C19.25 21.6266 21.3766 19.5 24 19.5C26.6234 19.5 28.75 21.6266 28.75 24.25ZM20.4083 24.25C20.4083 26.2336 22.0164 27.8417 24 27.8417C25.9836 27.8417 27.5917 26.2336 27.5917 24.25C27.5917 22.2664 25.9836 20.6583 24 20.6583C22.0164 20.6583 20.4083 22.2664 20.4083 24.25Z" fill="white"/>
<path d="M21.75 24.7422C21.75 27.3655 19.6234 29.4922 17 29.4922C14.3766 29.4922 12.25 27.3655 12.25 24.7422C12.25 22.1188 14.3766 19.9922 17 19.9922C19.6234 19.9922 21.75 22.1188 21.75 24.7422Z" fill="#A5A9F8"/>
<path d="M21.75 24.7578C21.75 27.3812 19.6234 29.5078 17 29.5078C14.3766 29.5078 12.25 27.3812 12.25 24.7578C12.25 22.1345 14.3766 20.0078 17 20.0078C19.6234 20.0078 21.75 22.1345 21.75 24.7578ZM13.4083 24.7578C13.4083 26.7414 15.0164 28.3495 17 28.3495C18.9836 28.3495 20.5917 26.7414 20.5917 24.7578C20.5917 22.7742 18.9836 21.1661 17 21.1661C15.0164 21.1661 13.4083 22.7742 13.4083 24.7578Z" fill="white"/>
<path d="M18.752 17.7461C18.752 20.3694 16.6253 22.4961 14.002 22.4961C11.3786 22.4961 9.25195 20.3694 9.25195 17.7461C9.25195 15.1227 11.3786 12.9961 14.002 12.9961C16.6253 12.9961 18.752 15.1227 18.752 17.7461Z" fill="#A5A9F8"/>
<path d="M18.75 17.75C18.75 20.3734 16.6234 22.5 14 22.5C11.3766 22.5 9.25 20.3734 9.25 17.75C9.25 15.1266 11.3766 13 14 13C16.6234 13 18.75 15.1266 18.75 17.75ZM10.4083 17.75C10.4083 19.7336 12.0164 21.3417 14 21.3417C15.9836 21.3417 17.5917 19.7336 17.5917 17.75C17.5917 15.7664 15.9836 14.1583 14 14.1583C12.0164 14.1583 10.4083 15.7664 10.4083 17.75Z" fill="white"/>
<path d="M32 17.7422C32 20.3655 29.8734 22.4922 27.25 22.4922C24.6266 22.4922 22.5 20.3655 22.5 17.7422C22.5 15.1188 24.6266 12.9922 27.25 12.9922C29.8734 12.9922 32 15.1188 32 17.7422Z" fill="#A5A9F8"/>
<path d="M32.0039 17.7422C32.0039 20.3655 29.8773 22.4922 27.2539 22.4922C24.6306 22.4922 22.5039 20.3655 22.5039 17.7422C22.5039 15.1188 24.6306 12.9922 27.2539 12.9922C29.8773 12.9922 32.0039 15.1188 32.0039 17.7422ZM23.6622 17.7422C23.6622 19.7258 25.2703 21.3339 27.2539 21.3339C29.2375 21.3339 30.8456 19.7258 30.8456 17.7422C30.8456 15.7586 29.2375 14.1505 27.2539 14.1505C25.2703 14.1505 23.6622 15.7586 23.6622 17.7422Z" fill="white"/>
<path d="M25.5 17.75C25.5 20.3734 23.3734 22.5 20.75 22.5C18.1266 22.5 16 20.3734 16 17.75C16 15.1266 18.1266 13 20.75 13C23.3734 13 25.5 15.1266 25.5 17.75Z" fill="#A5A9F8"/>
<path d="M25.5 17.75C25.5 20.3734 23.3733 22.5 20.75 22.5C18.1266 22.5 16 20.3734 16 17.75C16 15.1266 18.1266 13 20.75 13C23.3733 13 25.5 15.1266 25.5 17.75ZM17.1583 17.75C17.1583 19.7336 18.7664 21.3417 20.75 21.3417C22.7336 21.3417 24.3417 19.7336 24.3417 17.75C24.3417 15.7664 22.7336 14.1583 20.75 14.1583C18.7664 14.1583 17.1583 15.7664 17.1583 17.75Z" fill="white"/>
<path d="M22.6068 22L21.5 19H27.5V22H22.6068Z" fill="#3D9FFA" stroke="black" stroke-width="0.6"/>
<path d="M14.0002 22L14 19H20L18.8774 22H14.0002Z" fill="#FF3434" stroke="black" stroke-width="0.6"/>
<path d="M23.7807 23.7436C23.5057 24.2751 23.0892 24.7204 22.5772 25.0303C22.0653 25.3402 21.4777 25.5027 20.8792 25.4999C20.2808 25.4972 19.6947 25.3292 19.1856 25.0146C18.6766 24.7 18.2643 24.2509 17.9941 23.7169L18.6391 23.3906C18.8492 23.8059 19.1698 24.1551 19.5656 24.3998C19.9615 24.6444 20.4172 24.775 20.8826 24.7772C21.3479 24.7793 21.8049 24.6529 22.203 24.412C22.6011 24.171 22.9249 23.8248 23.1388 23.4115L23.7807 23.7436Z" fill="black"/>
<path d="M20 19H22" stroke="black" stroke-width="0.6"/>
<path d="M40 20C40 31.0457 31.0457 40 20 40C8.95431 40 0 31.0457 0 20C0 8.95431 8.95431 0 20 0C31.0457 0 40 8.95431 40 20ZM2.6038 20C2.6038 29.6077 10.3923 37.3962 20 37.3962C29.6077 37.3962 37.3962 29.6077 37.3962 20C37.3962 10.3923 29.6077 2.6038 20 2.6038C10.3923 2.6038 2.6038 10.3923 2.6038 20Z" fill="#BEC1FF"/>
</svg>
