

<svg width="100%" height="100%" viewBox="0 0 389 102" version="1.1" xmlns="http://www.w3.org/2000/svg" xmlns:xlink="http://www.w3.org/1999/xlink" xml:space="preserve" style="fill-rule:evenodd;clip-rule:evenodd;stroke-linejoin:round;stroke-miterlimit:2">
    <g id="Layer1" transform="matrix(1,0,0,1,-61,-125.057)">
        <g>
            <g transform="matrix(6.05327e-17,0.988574,-0.733333,4.49037e-17,229.667,57.3444)">
                <path d="M111.515,126.97C113.417,123.167 116.597,120.886 120,120.886C123.403,120.886 126.583,123.167 128.485,126.97C139.397,148.795 158.323,186.647 169.946,209.892C171.923,213.846 172.121,218.949 170.459,223.159C168.798,227.369 165.549,230 162.012,230C139.407,230 100.831,230 78.15,230C74.581,230 71.303,227.345 69.627,223.097C67.95,218.849 68.15,213.701 70.145,209.711C81.775,186.45 100.631,148.738 111.515,126.97Z" style="fill:rgb(19,18,193)"></path>
            </g>
            <path d="M61,176.468C66.798,174.825 73.083,174.598 79.356,176.145C88.938,178.509 91.79,185.187 99.69,189.854C106.813,194.061 115.26,194.988 123.224,193.347L75.746,225.349C72.846,227.303 69.104,227.498 66.017,225.856C62.929,224.214 61,221.002 61,217.505L61,176.468Z" style="fill:rgb(1,84,250)"></path>
            <path d="M61,205.011C64.418,203.712 68.126,203 72,203C80.863,203 88.862,206.727 94.514,212.698L75.746,225.349C72.846,227.303 69.104,227.498 66.017,225.856C62.929,224.214 61,221.002 61,217.505L61,205.011Z" style="fill:rgb(20,191,243)"></path>
        </g>
        <g transform="matrix(1.50822,0,0,1.50822,163.943,149.923)">
            <path d="M115.296,0.053L107.447,24.21L106.463,27.236L105.481,24.21L97.632,0.053L91.933,0.053L101.805,30.435L101.807,30.444C102.444,32.473 104.337,33.864 106.465,33.866C108.592,33.864 110.485,32.473 111.123,30.444L111.123,30.437L120.993,0.051L115.295,0.051L115.296,0.053ZM147.068,0.053L139.219,24.21L138.234,27.236L137.25,24.21L129.403,0.053L123.705,0.053L133.575,30.435L133.578,30.444C133.995,31.776 134.967,32.858 136.223,33.429C137.501,34.011 138.97,34.011 140.247,33.429C141.512,32.855 142.474,31.769 142.891,30.444L142.894,30.437L152.766,0.051L147.068,0.051L147.068,0.053ZM47.346,0.085L39.517,24.179L38.535,27.205L37.55,24.179L29.722,0.085L24.023,0.085L16.195,24.179L15.211,27.205L14.228,24.179L6.399,0.085L0.701,0.085L10.553,30.403L10.556,30.411C11.195,32.44 13.089,33.828 15.216,33.828C15.908,33.828 16.592,33.681 17.223,33.396C18.489,32.823 19.452,31.737 19.869,30.411L19.869,30.404L26.873,8.854L33.875,30.404L33.878,30.413C34.516,32.442 36.408,33.832 38.535,33.835C40.662,33.833 42.556,32.442 43.193,30.411L43.193,30.404L53.044,0.085L47.346,0.085ZM88.95,16.959C88.95,7.696 81.412,0.16 72.149,0.16C62.884,0.16 55.347,7.696 55.347,16.959C55.347,26.224 62.885,33.76 72.149,33.76C76.362,33.763 80.424,32.175 83.518,29.315L83.518,33.76L88.938,33.76L88.938,17.418C88.941,17.265 88.95,17.112 88.95,16.959ZM181.505,24.019C179.352,26.746 176.062,28.34 172.588,28.341C167.247,28.341 162.755,24.64 161.536,19.671L183.641,19.671L183.636,19.683L189.165,19.683C189.313,18.782 189.388,17.872 189.389,16.959C189.389,7.696 181.851,0.16 172.588,0.16C163.325,0.16 155.789,7.696 155.789,16.959C155.789,26.224 163.325,33.76 172.588,33.76C179.332,33.76 185.156,29.765 187.829,24.019L181.505,24.019ZM72.149,28.339C65.908,28.332 60.775,23.2 60.767,16.959C60.775,10.719 65.908,5.586 72.149,5.579C78.333,5.579 83.377,10.538 83.522,16.689L83.518,16.689L83.518,17.42C83.275,23.482 78.27,28.341 72.149,28.341L72.149,28.339ZM172.588,5.579C177.931,5.579 182.423,9.279 183.641,14.249L161.536,14.249C162.755,9.279 167.248,5.579 172.588,5.579Z"></path>
        </g>
    </g>
</svg>
